HIERARCHY
ROOT Hips
{
 OFFSET 0.000000 0.000000 0.000000
 CHANNELS 6 Xposition Yposition Zposition Yrotation Xrotation Zrotation
 JOINT Chest
 {
  OFFSET 0.000000 14.374500 -0.011500
  CHANNELS 3 Yrotation Xrotation Zrotation
  JOINT Chest2
  {
   OFFSET 0.000000 9.203400 0.023400
   CHANNELS 3 Yrotation Xrotation Zrotation
   JOINT Chest3
   {
    OFFSET 0.000000 9.162700 0.000000
    CHANNELS 3 Yrotation Xrotation Zrotation
    JOINT Chest4
    {
     OFFSET 0.000000 9.153300 0.000000
     CHANNELS 3 Yrotation Xrotation Zrotation
     JOINT Neck
     {
      OFFSET 0.000000 13.353600 0.000000
      CHANNELS 3 Yrotation Xrotation Zrotation
      JOINT Head
      {
       OFFSET 0.000000 8.573800 0.049400
       CHANNELS 3 Yrotation Xrotation Zrotation
       End Site
       {
        OFFSET 0.000000 16.219200 0.026100
       }
      }
     }
     JOINT RightCollar
     {
      OFFSET -2.497100 8.876100 0.000000
      CHANNELS 3 Yrotation Xrotation Zrotation
      JOINT RightShoulder
      {
       OFFSET -12.289200 0.000000 0.000000
       CHANNELS 3 Yrotation Xrotation Zrotation
       JOINT RightElbow
       {
        OFFSET 0.000000 -28.194900 0.000000
        CHANNELS 3 Yrotation Xrotation Zrotation
        JOINT RightWrist
        {
         OFFSET 0.000000 -23.009700 0.007900
         CHANNELS 3 Yrotation Xrotation Zrotation
         End Site
         {
          OFFSET 0.000000 -17.151500 0.000000
         }
        }
       }
      }
     }
     JOINT LeftCollar
     {
      OFFSET 2.497100 8.876100 0.000000
      CHANNELS 3 Yrotation Xrotation Zrotation
      JOINT LeftShoulder
      {
       OFFSET 12.289200 0.000000 0.000000
       CHANNELS 3 Yrotation Xrotation Zrotation
       JOINT LeftElbow
       {
        OFFSET 0.000000 -28.194900 0.000000
        CHANNELS 3 Yrotation Xrotation Zrotation
        JOINT LeftWrist
        {
         OFFSET 0.000000 -23.009700 0.007900
         CHANNELS 3 Yrotation Xrotation Zrotation
         End Site
         {
          OFFSET 0.000000 -17.151500 0.000000
         }
        }
       }
      }
     }
    }
   }
  }
 }
 JOINT RightHip
 {
  OFFSET -11.777600 0.056700 0.005700
  CHANNELS 3 Yrotation Xrotation Zrotation
  JOINT RightKnee
  {
   OFFSET 0.000000 -39.966000 -0.004200
   CHANNELS 3 Yrotation Xrotation Zrotation
   JOINT RightAnkle
   {
    OFFSET 0.000000 -41.981900 0.027400
    CHANNELS 3 Yrotation Xrotation Zrotation
    JOINT RightToe
    {
     OFFSET 0.000000 -9.910600 16.950100
     CHANNELS 3 Yrotation Xrotation Zrotation
     End Site
     {
      OFFSET 0.000000 -1.461000 6.191600
     }
    }
   }
  }
 }
 JOINT LeftHip
 {
  OFFSET 11.777600 0.056700 0.005700
  CHANNELS 3 Yrotation Xrotation Zrotation
  JOINT LeftKnee
  {
   OFFSET 0.000000 -39.966000 -0.004200
   CHANNELS 3 Yrotation Xrotation Zrotation
   JOINT LeftAnkle
   {
    OFFSET 0.000000 -41.981900 0.027400
    CHANNELS 3 Yrotation Xrotation Zrotation
    JOINT LeftToe
    {
     OFFSET 0.000000 -9.910600 16.950100
     CHANNELS 3 Yrotation Xrotation Zrotation
     End Site
     {
      OFFSET 0.000000 -1.461000 6.191600
     }
    }
   }
  }
 }
}
MOTION
Frames: 8
Frame Time: 0.008333
0.000000 91.618700 0.000000 0.000000 -5.767877 0.000000 0.000000 11.653817 0.000000 0.000000 -5.885947 0.000000 0.000000 -0.000000 0.000000 0.000000 -0.000000 0.000000 0.000000 12.528835 0.000000 0.000000 0.711642 0.000000 0.000000 -0.000000 0.000000 0.000000 0.000000 -90.000000 0.000000 -2.309062 0.000000 0.000000 2.309062 0.000000 0.000000 -0.000000 0.000000 0.000000 -0.000000 90.000000 0.000000 -2.309062 0.000000 0.000000 2.309062 0.000000 0.000000 8.520406 0.000000 0.000000 1.905762 0.000000 -0.000000 -4.658285 0.000000 0.000000 -0.000000 0.000000 0.000000 8.520406 0.000000 0.000000 1.905762 0.000000 -0.000000 -4.658285 0.000000 0.000000 -0.000000 0.000000
-2.448002 152.673847 75.677863 173.998756 -43.148355 -2.850947 4.275984 25.129585 3.577513 0.545025 4.071200 0.496768 0.888581 6.496167 0.813057 3.282803 20.725590 3.064974 6.559251 16.444648 -1.082226 7.338655 -8.223065 -2.689523 -1.123412 -4.321870 0.456411 7.286877 -10.244311 -9.697320 59.801388 -64.407850 -35.499307 32.729342 28.236469 -7.625576 -8.307972 -7.199027 -0.542486 -4.024502 -11.619703 4.542707 -34.835764 -56.499019 9.578554 -16.865116 7.675769 19.269380 7.577145 -34.567746 1.975378 -78.659106 84.336265 -81.870807 1.345551 -24.883119 9.835855 0.119413 -0.257426 0.059302 1.059607 -26.870741 -2.502419 144.052606 71.693434 155.722259 1.206761 -15.259581 -8.306500 0.160727 -4.816383 -0.904166
-2.961751 145.614558 76.744217 174.105673 -43.115625 -3.040319 4.237134 25.110829 3.698972 0.540010 4.080062 0.496597 0.884981 6.500460 0.811687 3.284544 20.713682 3.058564 6.619887 16.483161 -1.098005 7.428139 -8.195139 -2.732955 -1.158754 -4.295006 0.447564 7.285545 -10.252815 -9.606329 60.027225 -64.316890 -35.735862 32.701010 28.192183 -7.610846 -8.311424 -7.176275 -0.542896 -3.989415 -11.617032 4.530162 -34.848787 -56.539927 9.618736 -16.808052 7.647221 19.280409 7.412874 -34.631889 2.116935 -78.986134 84.336273 -82.200142 1.381080 -25.005215 9.849376 0.062237 -0.194762 0.036387 0.920774 -26.873761 -2.358811 144.001140 71.731314 155.673002 1.247109 -15.195136 -8.287318 0.071981 0.116402 0.042084
-3.387527 139.801214 77.620745 174.187633 -43.085798 -3.180150 4.202543 25.103725 3.785961 0.537967 4.083118 0.496060 0.881631 6.505091 0.810685 3.282786 20.700722 3.051289 6.676079 16.509939 -1.110381 7.507149 -8.182203 -2.771320 -1.190879 -4.267328 0.439224 7.292112 -10.268394 -9.545299 60.189142 -64.269860 -35.894626 32.666527 28.174819 -7.609876 -8.313522 -7.155546 -0.542969 -3.956731 -11.612593 4.517445 -34.890458 -56.574927 9.670600 -16.776742 7.635015 19.284822 7.288738 -34.683630 2.218284 -79.252893 84.333128 -82.465228 1.396799 -25.118534 9.858878 0.027697 -0.124609 0.016192 0.814258 -26.877262 -2.252334 143.966215 71.764146 155.635532 1.274571 -15.140990 -8.272047 0.031878 0.064968 0.018640
-3.692378 135.604324 78.251106 174.251495 -43.066871 -3.292958 4.175690 25.115766 3.858960 0.538824 4.080088 0.495071 0.878466 6.509607 0.809981 3.268661 20.706851 3.045608 6.734084 16.507110 -1.127994 7.527409 -8.193828 -2.786002 -1.209042 -4.257542 0.424033 7.294193 -10.285708 -9.490606 60.337803 -64.205564 -36.064535 32.597510 28.140543 -7.608769 -8.306256 -7.156853 -0.546808 -3.875113 -11.498381 4.469252 -35.101662 -56.686670 9.878060 -16.747403 7.625251 19.288979 7.182324 -34.719573 2.313650 -79.453143 84.322313 -82.672176 1.409130 -25.194924 9.863132 0.008970 -0.070616 0.005243 0.724827 -26.875130 -2.159814 143.948688 71.783361 155.621060 1.285009 -15.107284 -8.282961 0.019422 0.027456 0.011357
-3.888022 132.953684 78.646766 174.299112 -43.047440 -3.354784 4.145953 25.126849 3.888526 0.539605 4.073714 0.494789 0.879310 6.503530 0.808826 3.228729 20.772498 3.045794 6.801562 16.454105 -1.159292 7.549463 -8.201491 -2.800262 -1.204595 -4.290392 0.400694 7.292235 -10.300633 -9.441156 60.486526 -64.152189 -36.224385 32.569972 28.097394 -7.598548 -8.279108 -7.203718 -0.556707 -3.813472 -11.429440 4.446033 -35.196857 -56.779816 9.969510 -16.753065 7.629540 19.296103 7.125229 -34.748319 2.352871 -79.600470 84.318362 -82.825552 1.411207 -25.252038 9.871089 -0.001613 -0.031539 -0.000943 0.671226 -26.882281 -2.121260 143.935363 71.797149 155.607210 1.294155 -15.082693 -8.284469 0.007091 0.004320 0.004146
-3.997987 131.494541 78.862949 174.315408 -43.020315 -3.370724 4.130453 25.116371 3.890760 0.541327 4.065968 0.494714 0.875680 6.513460 0.809347 3.210902 20.796870 3.041726 6.843096 16.431714 -1.173559 7.615228 -8.209356 -2.829305 -1.224975 -4.286283 0.390873 7.286911 -10.310166 -9.399160 60.643063 -64.115261 -36.371204 32.540580 28.070989 -7.600172 -8.275957 -7.215149 -0.562967 -3.780966 -11.418863 4.444309 -35.215939 -56.817635 9.990831 -16.766460 7.632663 19.299322 7.108534 -34.779340 2.358753 -79.685376 84.320365 -82.911219 1.410828 -25.273808 9.868566 -0.002313 -0.021569 -0.001352 0.654232 -26.903287 -2.113237 143.929538 71.801846 155.599294 1.286898 -15.080327 -8.276378 0.002672 -0.005804 0.001562
-4.050091 130.799398 78.963421 174.326418 -42.993355 -3.379017 4.116823 25.106844 3.887797 0.535197 4.084471 0.494072 0.872498 6.516426 0.808172 3.206493 20.790797 3.037444 6.871767 16.414045 -1.185060 7.713233 -8.239445 -2.877566 -1.251568 -4.274599 0.381551 7.279989 -10.315984 -9.363962 60.791055 -64.089192 -36.498425 32.496935 28.044529 -7.617162 -8.268150 -7.232914 -0.566721 -3.759999 -11.391443 4.438873 -35.261096 -56.847784 10.037521 -16.742962 7.626353 19.301819 7.097647 -34.810416 2.362953 -79.779845 84.330962 -83.008694 1.398399 -25.285526 9.868250 -0.002237 -0.018033 -0.001307 0.636746 -26.922848 -2.106321 143.937673 71.806382 155.598362 1.286796 -15.082257 -8.272785 0.001454 -0.008674 0.000850
